HIERARCHY
ROOT joint_0
{
	OFFSET 0.000000 0.000000 0.000000
	CHANNELS 6 Xposition Yposition Zposition Zrotation Yrotation Xrotation 
	JOINT joint_1
	{
		OFFSET 3.886261 -0.864090 119.041016
		CHANNELS 3 Zrotation Yrotation Xrotation
		JOINT joint_2
		{
			OFFSET -8.814819 -1.400200 108.366943
			CHANNELS 3 Zrotation Yrotation Xrotation
			JOINT joint_3
			{
				OFFSET -10.127777 -1.846550 108.123047
				CHANNELS 3 Zrotation Yrotation Xrotation
				JOINT joint_4
				{
					OFFSET -0.104309 -2.852760 150.227051
					CHANNELS 3 Zrotation Yrotation Xrotation
					JOINT joint_5
					{
						OFFSET 20.206146 2.292160 92.163940
						CHANNELS 3 Zrotation Yrotation Xrotation
						End Site
						{
							OFFSET 0.000000 0.000000 0.000000
						}
					}
				}
				JOINT joint_6
				{
					OFFSET 0.345886 -34.260384 83.589966
					CHANNELS 3 Zrotation Yrotation Xrotation
					JOINT joint_7
					{
						OFFSET -3.824402 -146.174217 -19.015991
						CHANNELS 3 Zrotation Yrotation Xrotation
						JOINT joint_8
						{
							OFFSET 134.098145 -24.802032 -261.230957
							CHANNELS 3 Zrotation Yrotation Xrotation
							JOINT joint_9
							{
								OFFSET 123.899048 209.340523 59.187012
								CHANNELS 3 Zrotation Yrotation Xrotation
								End Site
								{
									OFFSET 0.000000 0.000000 0.000000
								}
							}
						}
					}
				}
				JOINT joint_10
				{
					OFFSET -0.423798 31.098438 84.831055
					CHANNELS 3 Zrotation Yrotation Xrotation
					JOINT joint_11
					{
						OFFSET 3.093201 146.891491 -12.504028
						CHANNELS 3 Zrotation Yrotation Xrotation
						JOINT joint_12
						{
							OFFSET 195.631927 -20.967743 -219.380981
							CHANNELS 3 Zrotation Yrotation Xrotation
							JOINT joint_13
							{
								OFFSET -8.651001 -247.511261 -36.616089
								CHANNELS 3 Zrotation Yrotation Xrotation
								End Site
								{
									OFFSET 0.000000 0.000000 0.000000
								}
							}
						}
					}
				}
			}
		}
	}
	JOINT joint_14
	{
		OFFSET 6.948090 -87.642914 -106.942017
		CHANNELS 3 Zrotation Yrotation Xrotation
		JOINT joint_15
		{
			OFFSET -34.394226 4.543823 -458.972961
			CHANNELS 3 Zrotation Yrotation Xrotation
			JOINT joint_16
			{
				OFFSET -17.051544 6.964645 -485.636009
				CHANNELS 3 Zrotation Yrotation Xrotation
				JOINT joint_17
				{
					OFFSET 190.520630 40.462875 -83.888000
					CHANNELS 3 Zrotation Yrotation Xrotation
					End Site
					{
						OFFSET 0.000000 0.000000 0.000000
					}
				}
			}
		}
	}
	JOINT joint_18
	{
		OFFSET 3.929901 87.535423 -107.188965
		CHANNELS 3 Zrotation Yrotation Xrotation
		JOINT joint_19
		{
			OFFSET -34.463440 -10.383845 -458.873047
			CHANNELS 3 Zrotation Yrotation Xrotation
			JOINT joint_20
			{
				OFFSET 14.641205 -11.071349 -485.637978
				CHANNELS 3 Zrotation Yrotation Xrotation
				JOINT joint_21
				{
					OFFSET 194.569275 -4.161928 -84.249998
					CHANNELS 3 Zrotation Yrotation Xrotation
					End Site
					{
						OFFSET 0.000000 0.000000 0.000000
					}
				}
			}
		}
	}
}
MOTION
Frames: 17
Frame Time: 0.016667
-541.714661 -42.432823 1174.352051 3.725306 12.502252 0.085776 0.848235 -6.227227 -12.591179 0.860111 0.738503 1.892605 0.147175 -1.750362 -1.867858 1.066609 -2.964269 -3.952240 0.000000 0.000000 0.000000 1.654731 16.769241 6.464328 -4.570966 19.576051 0.949995 -54.538937 18.192491 -71.742503 0.000000 0.000000 0.000000 -4.269606 22.363472 -4.216206 34.137471 23.866156 31.085177 44.428735 -47.954697 28.650801 0.000000 0.000000 0.000000 2.588406 -14.791919 -4.789273 1.689459 23.437526 2.141153 2.329246 -0.757703 1.082877 0.000000 0.000000 0.000000 1.414323 -28.181385 11.576374 0.894429 29.252710 1.101188 3.243397 -4.296763 1.136170 0.000000 0.000000 0.000000 
-533.229248 -41.837944 1173.402954 4.500159 12.134735 0.080072 0.476375 -6.508944 -13.616096 0.555536 0.749479 2.111529 -0.208357 -1.762268 -2.074635 1.057214 -1.970342 -3.926410 0.000000 0.000000 0.000000 1.752049 16.557971 6.691779 -4.263711 19.640564 1.315478 -54.317777 18.086853 -72.400294 0.000000 0.000000 0.000000 -3.077244 23.607492 -2.277738 31.795311 24.409952 30.253689 44.355451 -48.812703 29.720882 0.000000 0.000000 0.000000 2.184159 -13.699440 -4.204732 1.390214 23.228580 1.454146 1.994820 -0.923254 0.982594 0.000000 0.000000 0.000000 0.935414 -28.650396 12.367078 0.602184 26.406844 1.229677 2.437955 -2.353340 0.863455 0.000000 0.000000 0.000000 
-524.876160 -40.042980 1171.866943 5.068005 11.584883 -0.046977 0.294870 -6.645587 -14.292765 0.401686 0.728138 2.255505 -0.395280 -1.758002 -2.224824 1.024127 -0.916316 -3.856815 0.000000 0.000000 0.000000 1.553303 16.370441 6.788022 -4.176846 19.712943 1.533387 -54.162354 18.019312 -72.843554 0.000000 0.000000 0.000000 -2.172550 24.547225 -0.825801 29.758645 24.847740 29.647853 44.203465 -49.523721 30.685622 0.000000 0.000000 0.000000 1.868253 -12.520397 -3.663012 1.156332 23.198885 0.904652 1.734917 -1.167196 0.928407 0.000000 0.000000 0.000000 0.324233 -28.935465 13.198213 0.118194 23.748483 1.169949 1.435929 -0.390971 0.510460 0.000000 0.000000 0.000000 
-516.403198 -35.355247 1169.483032 5.280119 10.867938 -0.302528 0.284887 -6.791668 -14.217005 0.307422 0.732525 2.247269 -0.488375 -1.758889 -2.203660 0.973762 0.191476 -3.782403 0.000000 0.000000 0.000000 1.398937 16.274089 6.519235 -4.527011 19.846671 1.443617 -54.196586 18.027984 -72.883243 0.000000 0.000000 0.000000 -1.563259 24.920546 -0.914560 28.416607 25.216278 29.973729 43.755962 -50.197047 31.748011 0.000000 0.000000 0.000000 1.721386 -11.315089 -3.375925 1.066409 23.461424 0.649798 1.651127 -1.558264 0.974882 0.000000 0.000000 0.000000 -0.362587 -28.941652 14.029890 -0.431571 21.375822 0.878165 0.454078 1.151491 0.156943 0.000000 0.000000 0.000000 
-507.973206 -28.618340 1166.416016 5.305357 9.985729 -0.643374 0.438319 -6.906909 -13.616528 0.296978 0.759416 2.137039 -0.475733 -1.756408 -2.060415 0.897565 1.400871 -3.667771 0.000000 0.000000 0.000000 1.090594 16.226109 6.002231 -5.200270 20.005904 1.103330 -54.354575 18.094711 -72.611389 0.000000 0.000000 0.000000 -1.288920 24.880977 -2.062030 27.642548 25.543381 30.898402 43.161700 -50.771288 32.742641 0.000000 0.000000 0.000000 1.682342 -10.041408 -3.276629 1.058731 23.936583 0.625719 1.674551 -2.054488 1.085735 0.000000 0.000000 0.000000 -1.204689 -28.761014 14.846384 -1.149650 19.249134 0.478002 -0.616599 2.272177 -0.239383 0.000000 0.000000 0.000000 
-499.451965 -20.836460 1162.550049 5.074785 9.017479 -1.051303 0.680499 -6.998547 -12.805525 0.372102 0.777119 1.999063 -0.369510 -1.754063 -1.890505 0.808200 2.541177 -3.519232 0.000000 0.000000 0.000000 0.771617 16.192403 5.424293 -6.063937 20.208787 0.679134 -54.620974 18.191540 -72.175258 0.000000 0.000000 0.000000 -1.009071 24.786467 -3.402945 26.873633 25.928295 31.823621 42.540268 -51.272230 33.717447 0.000000 0.000000 0.000000 1.717943 -8.807920 -3.251911 1.122307 24.666608 0.683880 1.769824 -2.720338 1.261012 0.000000 0.000000 0.000000 -2.179606 -28.391376 15.658994 -2.056643 17.445444 0.027653 -1.824789 3.707113 -0.685985 0.000000 0.000000 0.000000 
-490.660645 -12.555984 1157.719971 4.537818 8.024875 -1.507750 0.981611 -7.120379 -11.984053 0.543876 0.785825 1.902294 -0.172589 -1.748207 -1.754289 0.716662 3.513068 -3.348808 0.000000 0.000000 0.000000 0.533564 16.179464 4.876749 -7.124832 20.490539 0.291139 -55.014424 18.327377 -71.584859 0.000000 0.000000 0.000000 -0.513995 24.862509 -4.425174 25.708780 26.428734 32.357977 41.971735 -51.754048 34.726491 0.000000 0.000000 0.000000 1.802477 -7.693989 -3.240347 1.249011 25.691255 0.716533 1.907456 -3.645520 1.509070 0.000000 0.000000 0.000000 -3.375955 -27.832199 16.468346 -3.262878 15.918062 -0.554002 -3.322917 6.280212 -1.234905 0.000000 0.000000 0.000000 
-481.654510 -3.413366 1151.973022 3.741950 6.963176 -2.002757 1.346778 -7.245828 -11.018846 0.807420 0.792480 1.803884 0.118957 -1.740461 -1.611102 0.617000 4.374421 -3.144231 0.000000 0.000000 0.000000 0.316151 16.205959 4.276728 -8.425514 20.829531 -0.120667 -55.515367 18.530489 -70.777036 0.000000 0.000000 0.000000 0.096324 24.976478 -5.427926 24.337612 27.023742 32.718904 41.418257 -52.210734 35.746005 0.000000 0.000000 0.000000 1.953894 -6.643154 -3.293522 1.441079 26.981560 0.768051 2.092340 -4.779630 1.822496 0.000000 0.000000 0.000000 -4.875648 -27.049612 17.275234 -4.844041 14.540137 -1.262652 -5.184824 9.688830 -1.934882 0.000000 0.000000 0.000000 
-472.796082 6.225042 1145.672974 2.803107 5.861474 -2.450907 1.703469 -7.279042 -10.034932 1.089441 0.777886 1.683242 0.432291 -1.732558 -1.479447 0.521874 5.057479 -2.929745 0.000000 0.000000 0.000000 0.162746 16.168411 3.735357 -9.623688 21.118185 -0.584892 -56.022556 18.693404 -70.105369 0.000000 0.000000 0.000000 0.657647 25.173009 -6.321703 22.915774 27.670821 32.903267 40.865837 -52.471019 36.735683 0.000000 0.000000 0.000000 2.189319 -5.718721 -3.493498 1.683340 28.518132 0.889463 2.320197 -5.920461 2.158095 0.000000 0.000000 0.000000 -6.372719 -26.164778 18.035478 -6.481618 13.956498 -1.686665 -7.067719 11.643564 -2.680262 0.000000 0.000000 0.000000 
-464.257324 16.209856 1138.780029 1.800383 4.773800 -2.779259 2.010952 -7.233359 -9.175104 1.333039 0.765559 1.571094 0.700167 -1.721495 -1.368463 0.442725 5.503375 -2.725474 0.000000 0.000000 0.000000 0.126844 15.978552 3.315481 -10.502641 21.295854 -1.130799 -56.505533 18.724156 -69.829158 0.000000 0.000000 0.000000 1.056091 25.477462 -7.061911 21.695336 28.328792 32.858340 40.407545 -52.437596 37.466342 0.000000 0.000000 0.000000 2.520938 -4.979761 -3.936236 1.959803 30.292160 1.155974 2.578876 -7.015806 2.502235 0.000000 0.000000 0.000000 -7.582302 -25.352437 18.705346 -7.836715 15.018179 -1.584186 -8.688303 9.947971 -3.354364 0.000000 0.000000 0.000000 
-455.899414 26.693438 1131.146973 0.650473 3.675398 -3.015223 2.308549 -7.121596 -8.380872 1.578917 0.751388 1.474831 0.963829 -1.702655 -1.274413 0.376193 5.741226 -2.522631 0.000000 0.000000 0.000000 0.190990 15.672420 2.978721 -11.203286 21.401475 -1.750055 -57.016211 18.661679 -69.809346 0.000000 0.000000 0.000000 1.336151 25.852725 -7.718391 20.618963 29.000412 32.607461 40.046382 -52.202343 37.950903 0.000000 0.000000 0.000000 2.970477 -4.398139 -4.587044 2.296454 32.305861 1.534578 2.878515 -8.106356 2.871883 0.000000 0.000000 0.000000 -8.465413 -24.576642 19.262801 -8.846077 17.482669 -1.262910 -10.108283 5.555593 -3.972463 0.000000 0.000000 0.000000 
-448.023895 37.168591 1124.062988 -0.361925 2.654401 -3.063323 2.546174 -6.951045 -7.830039 1.788675 0.723421 1.402959 1.184922 -1.676910 -1.228509 0.320898 5.870567 -2.340244 0.000000 0.000000 0.000000 0.229112 15.307429 2.813754 -11.748934 21.445959 -2.321922 -57.543565 18.498797 -69.953294 0.000000 0.000000 0.000000 1.421475 26.268396 -8.270402 19.051958 29.639135 32.333539 39.315638 -51.729221 39.049475 0.000000 0.000000 0.000000 3.444482 -4.087561 -5.409530 2.613268 34.553363 1.903257 3.188368 -8.853390 3.184357 0.000000 0.000000 0.000000 -8.858989 -24.086909 19.378103 -9.278953 20.390851 -1.138864 -11.051941 1.041703 -4.405751 0.000000 0.000000 0.000000 
-440.799103 47.421753 1118.354004 -0.968310 1.807256 -2.772154 2.679740 -6.796823 -7.837875 1.914475 0.704393 1.423327 1.300695 -1.636135 -1.261395 0.275399 5.946732 -2.194275 0.000000 0.000000 0.000000 0.132717 14.895862 2.947247 -12.148783 21.422586 -2.821959 -58.085839 18.221037 -70.238091 0.000000 0.000000 0.000000 1.216244 26.678116 -8.751602 16.677027 30.177649 32.236671 37.804772 -50.800970 41.294764 0.000000 0.000000 0.000000 3.854656 -4.175626 -6.502170 2.815617 37.112476 2.225398 3.479887 -9.052430 3.386063 0.000000 0.000000 0.000000 -8.745010 -24.179297 18.687370 -9.070645 23.346358 -1.328789 -11.293502 -2.140377 -4.540777 0.000000 0.000000 0.000000 
-434.106079 57.655552 1113.520020 -1.360651 1.083614 -2.193730 2.771822 -6.636279 -8.338162 1.995907 0.677948 1.540835 1.348654 -1.578108 -1.366928 0.235651 5.948093 -2.068451 0.000000 0.000000 0.000000 -0.063538 14.427794 3.361109 -12.400562 21.324970 -3.307221 -58.652503 17.830299 -70.687238 0.000000 0.000000 0.000000 0.733436 27.043985 -9.223379 13.957082 30.563998 32.294348 35.709176 -49.292031 44.113376 0.000000 0.000000 0.000000 4.261100 -4.600502 -7.871457 2.961972 39.963230 2.524858 3.803879 -8.763888 3.515236 0.000000 0.000000 0.000000 -8.181497 -24.680842 17.345000 -8.349997 26.674228 -1.582456 -10.937049 -4.808041 -4.427874 0.000000 0.000000 0.000000 
-428.110962 67.264336 1109.734009 -1.622975 0.510945 -1.652851 2.851950 -6.482431 -8.824999 2.046239 0.636646 1.635776 1.370403 -1.540775 -1.466437 0.196854 5.928031 -1.938697 0.000000 0.000000 0.000000 -0.266382 14.064146 3.725355 -12.496928 21.221418 -3.489150 -59.176430 17.355674 -71.135591 0.000000 0.000000 0.000000 0.195670 27.362654 -9.499623 11.087411 30.727273 32.149618 33.549706 -47.487655 46.973483 0.000000 0.000000 0.000000 4.636115 -5.200099 -9.128339 3.092375 42.680819 2.698652 4.177096 -7.866814 3.544838 0.000000 0.000000 0.000000 -7.641590 -25.252877 16.108709 -7.659802 29.693325 -1.909819 -10.532107 -6.874649 -4.290044 0.000000 0.000000 0.000000 
-423.020599 75.744186 1107.187988 -1.637105 0.196159 -1.348075 2.894500 -6.441363 -9.007514 2.026993 0.620208 1.631797 1.343862 -1.560520 -1.496936 0.160107 5.929228 -1.799434 0.000000 0.000000 0.000000 -0.407201 13.931569 3.781504 -12.396416 21.175714 -3.066932 -59.617656 16.768696 -71.491814 0.000000 0.000000 0.000000 -0.278152 27.690683 -9.345636 7.699329 30.597994 31.481185 31.468754 -45.456367 50.043409 0.000000 0.000000 0.000000 4.918367 -5.983548 -10.039829 3.179714 45.053592 2.710676 4.609699 -6.187628 3.423413 0.000000 0.000000 0.000000 -7.525759 -25.932076 15.511040 -7.397232 32.076729 -2.504097 -10.560881 -8.286515 -4.315790 0.000000 0.000000 0.000000 
-418.768829 83.328430 1105.802002 -1.362355 0.134180 -1.155476 2.886232 -6.528262 -9.100769 1.933870 0.639641 1.584951 1.252360 -1.619968 -1.486859 0.123992 5.936423 -1.649978 0.000000 0.000000 0.000000 -0.512987 13.969199 3.667765 -12.088965 21.163928 -2.167183 -59.988467 16.047979 -71.826919 0.000000 0.000000 0.000000 -0.773905 27.995259 -8.872955 3.854997 30.136677 30.568993 29.250378 -42.979965 53.360412 0.000000 0.000000 0.000000 5.104837 -7.021359 -10.778937 3.199218 47.233020 2.619081 5.127878 -3.733596 3.155037 0.000000 0.000000 0.000000 -7.671633 -26.858068 15.255077 -7.365773 34.132130 -3.340449 -10.795870 -9.157432 -4.413134 0.000000 0.000000 0.000000 
